<?xml version="1.0" encoding="UTF-8" standalone="no"?>
<!-- Created with Inkscape (http://www.inkscape.org/) -->
<svg id="svg8" xmlns:rdf="http://www.w3.org/1999/02/22-rdf-syntax-ns#" xmlns="http://www.w3.org/2000/svg" height="220" width="160" version="1.1" xmlns:cc="http://creativecommons.org/ns#" xmlns:dc="http://purl.org/dc/elements/1.1/" viewBox="0 0 42.333332 58.208335">
 <metadata id="metadata5">
  <rdf:RDF>
   <cc:Work rdf:about="">
    <dc:format>image/svg+xml</dc:format>
    <dc:type rdf:resource="http://purl.org/dc/dcmitype/StillImage"/>
    <dc:title/>
   </cc:Work>
  </rdf:RDF>
 </metadata>
 <g id="layer1" transform="translate(0 -238.79)">
  <g id="g102" stroke-opacity="0">
   <path id="rect3715" style="paint-order:stroke fill markers" d="m18.116 278.54s-0.05314 2.0747-0.05314 2.5896c0 0.60003-0.05565 1.729-0.2613 3.0258-0.15201 0.95862-0.26804 1.6084-0.42606 2.492-0.13511 0.7555 0.10453-0.18008-0.45093 1.8929-0.45397 1.6942-0.36639 1.3553-0.55038 2.0245-0.12812 0.46605-0.34204 0.76779-0.67517 1.2826-0.33313 0.51479-0.83338 1.1741-1.6492 1.9899-0.23524 0.23523-0.3717 0.37667-0.56744 0.55573-0.20324 0.18593-0.42486 0.23601-0.49041 0.48067-0.15144 0.56517-0.14186 1.1997-0.14186 1.1997l8.7733-0.0302 8.6407 0.0425s0.06841-0.46535-0.0702-1.0851c-0.04233-0.18926-0.3979-0.42638-0.53088-0.56013-0.30253-0.30427-0.51163-0.55313-0.79607-0.8726-0.40946-0.4599-0.83813-0.94259-1.2787-1.4532-0.44055-0.51061-0.63383-0.80325-0.97303-1.6141-0.33919-0.81082-0.71727-2.5722-0.99886-4.0052-0.39391-2.0046-0.57341-2.8966-0.65616-5.1825l-0.09896-2.7436s-0.74607-0.0134-1.5863-0.0122c-1.3519-0.002-2.1237 0.0005-3.3632 0.0005-0.79407 0-1.7959-0.0175-1.7959-0.0175zm1.2719 0.23205s0.652 0.0166 1.1685 0.0166c0.80626 0 1.308-0.002 2.1874-0.0005 0.54653-0.00094 1.032 0.0112 1.032 0.0112l0.06434 2.5466c0.05383 2.1219 0.17033 2.9498 0.42655 4.8105 0.18317 1.3301 0.42919 2.9654 0.64982 3.7181 0.22063 0.75262 0.2643 1.0987 0.55086 1.5726 0.28656 0.47398 0.4995 0.86836 0.76584 1.2953 0.18501 0.29654 0.46913 0.63355 0.66591 0.91599 0.0865 0.12415 0.10095 0.11892 0.55428 0.69175 0.45332 0.57283 0.58352 0.58888 0.58352 0.58888l-6.3671 0.0805-6.6035-0.0322s0.41119-0.34811 0.6898-0.69515 0.39-0.40695 0.4987-0.59523c0.17629-0.30534 0.33545-0.50703 0.48846-0.72538 0.53064-0.75726 0.85627-1.3688 1.073-1.8466 0.21669-0.47785 0.3554-0.75785 0.43874-1.1904 0.11968-0.62124 0.06302-0.30712 0.3583-1.8798 0.36131-1.9242 0.2051-1.0556 0.29298-1.7569 0.10279-0.82021 0.1785-1.4233 0.27738-2.3131 0.13377-1.2038 0.16965-2.2519 0.16965-2.8089 0-0.47788 0.03461-2.4038 0.03461-2.4038z"/>
   <path id="rect3783" style="paint-order:stroke fill markers" d="m30.251 258.8s-11.778 0.0877-17.341 0.0877c-0.235 0-0.30933-0.0204-0.21357 0.33699 0.05815 0.217 0.10717 0.58484 0.19895 1.1781 0.26681 2.0036 0.19514 1.9687 0.37829 3.2272 0.11421 0.78471 0.25973 1.9066 0.41875 2.7085 0.48914 2.4666 0.49351 2.505 0.70003 3.6752 0.41627 2.3588 0.40301 2.3596 0.66591 3.2179 0.86362 2.8196 0.96541 2.8408 1.3055 3.3958 1.6024 2.0464 1.7598 1.9358 1.7598 1.9358l6.7454 0.0292s1.1389-1.1143 1.8983-2.2795c0.59625-0.91489 1.187-3.0531 1.187-3.0531l0.66688-3.3486 0.53234-3.7556 0.42996-2.9396s0.18824-1.9121 0.43484-2.8362c0.42296-1.585 0.23253-1.5799 0.23253-1.5799zm-1.4459 1.8096s-0.04842 0.51432-0.27337 1.4728c-0.17288 0.73659-0.42715 2.2611-0.42715 2.2611l-0.32773 2.3296-0.38978 3.151s-0.28912 1.7477-0.54355 2.6626c-0.25443 0.91493-0.47694 1.4856-0.87852 2.4005-0.45574 1.0382-1.5478 1.8578-1.5478 1.8578s-0.73163 0.90541-2.6724 0.87504c-1.9408-0.0304-2.7665-0.62984-2.7665-0.62984s-0.39387-0.0504-1.4946-1.8471c-0.27725-0.45254-0.36062-0.46976-1.0647-2.7684-0.21433-0.69976-0.20322-0.70024-0.54258-2.6232-0.16836-0.95401-0.1716-0.98576-0.57036-2.9966-0.12964-0.65372-0.24862-1.5676-0.34173-2.2074-0.14932-1.026-0.09058-0.99803-0.30809-2.6315-0.18478-1.3876-0.1774-1.3286-0.1774-1.3286z"/>
   <g id="g3840" transform="matrix(.24959 0 0 .24959 11.217 241.3)">
    <rect id="rect3802" style="paint-order:stroke fill markers" height="136.11" width="22.346" y="-6.1663" x="29.794"/>
    <rect id="rect3802-2" style="paint-order:stroke fill markers" transform="rotate(90)" height="81.151" width="22.578" y="-81.712" x="25.205"/>
   </g>
   <g id="g3900" transform="matrix(.24959 0 0 .24959 11.192 241.11)" fill="#fff">
    <rect id="rect3892" style="paint-order:stroke fill markers" height="123.53" width="11.013" y="2.6186" x="35.911"/>
    <rect id="rect3896" style="paint-order:stroke fill markers" height="10.294" width="69.667" y="31.826" x="5.7458"/>
   </g>
  </g>
 </g>
</svg>
