<?xml version="1.0" encoding="UTF-8" standalone="no"?>
<!-- Created with Inkscape (http://www.inkscape.org/) -->
<svg id="svg8" xmlns:rdf="http://www.w3.org/1999/02/22-rdf-syntax-ns#" xmlns="http://www.w3.org/2000/svg" height="60" width="60" version="1.1" xmlns:cc="http://creativecommons.org/ns#" xmlns:dc="http://purl.org/dc/elements/1.1/" viewBox="0 0 15.874999 15.875001">
 <metadata id="metadata5">
  <rdf:RDF>
   <cc:Work rdf:about="">
    <dc:format>image/svg+xml</dc:format>
    <dc:type rdf:resource="http://purl.org/dc/dcmitype/StillImage"/>
    <dc:title/>
   </cc:Work>
  </rdf:RDF>
 </metadata>
 <g id="layer1" transform="translate(0 -281.12)">
  <g id="g46" stroke-opacity="0" transform="translate(.20045 -.13363)">
   <rect id="rect4605" style="paint-order:stroke fill markers" height="10.823" width=".98739" y="283.75" x="5.101"/>
   <rect id="rect4605-6-3" style="paint-order:stroke fill markers" transform="matrix(.71424 -.69990 -.71424 -.69990 0 0)" height="7.1476" width=".94528" y="-217.8" x="-202.79"/>
   <rect id="rect842-1-6" ry=".46804" style="paint-order:stroke fill markers" transform="rotate(23.5)" height="2.2288" width=".51579" y="253.61" x="122.26" fill="#333"/>
   <rect id="rect4605-6" style="paint-order:stroke fill markers" transform="matrix(.71424 .69990 -.71424 .69990 0 0)" height="7.1016" width=".93921" y="195.21" x="210.18"/>
   <rect id="rect842-1" ry=".46804" style="paint-order:stroke fill markers" transform="rotate(23.5)" height="2.2288" width=".51579" y="268.17" x="122.22" fill="#333"/>
   <path id="path20" style="paint-order:stroke fill markers" d="m7.8707 282.49a6.6235 6.6235 0 0 0 -6.6235 6.6235 6.6235 6.6235 0 0 0 6.6235 6.6235 6.6235 6.6235 0 0 0 6.6235 -6.6235 6.6235 6.6235 0 0 0 -6.6235 -6.6235zm0 0.99964a5.6238 5.6238 0 0 1 5.6239 5.6239 5.6238 5.6238 0 0 1 -5.6239 5.6239 5.6238 5.6238 0 0 1 -5.6239 -5.6239 5.6238 5.6238 0 0 1 5.6239 -5.6239z" fill="#298bf9"/>
  </g>
 </g>
</svg>
