<?xml version="1.0" encoding="UTF-8" standalone="no"?>
<!-- Created with Inkscape (http://www.inkscape.org/) -->

<svg
   xmlns:dc="http://purl.org/dc/elements/1.1/"
   xmlns:cc="http://creativecommons.org/ns#"
   xmlns:rdf="http://www.w3.org/1999/02/22-rdf-syntax-ns#"
   xmlns:svg="http://www.w3.org/2000/svg"
   xmlns="http://www.w3.org/2000/svg"
   xmlns:sodipodi="http://sodipodi.sourceforge.net/DTD/sodipodi-0.dtd"
   xmlns:inkscape="http://www.inkscape.org/namespaces/inkscape"
   id="svg8"
   height="220"
   width="160"
   version="1.1"
   viewBox="0 0 42.333332 58.208335"
   sodipodi:docname="husit_insignia.svg"
   inkscape:version="0.92.3 (2405546, 2018-03-11)">
  <defs
     id="defs16" />
  <sodipodi:namedview
     pagecolor="#ffffff"
     bordercolor="#666666"
     borderopacity="1"
     objecttolerance="10"
     gridtolerance="10"
     guidetolerance="10"
     inkscape:pageopacity="0"
     inkscape:pageshadow="2"
     inkscape:window-width="1366"
     inkscape:window-height="705"
     id="namedview14"
     showgrid="false"
     inkscape:zoom="3.0341309"
     inkscape:cx="67.464945"
     inkscape:cy="116.51073"
     inkscape:window-x="-8"
     inkscape:window-y="-8"
     inkscape:window-maximized="1"
     inkscape:current-layer="svg8" />
  <metadata
     id="metadata5">
    <rdf:RDF>
      <cc:Work
         rdf:about="">
        <dc:format>image/svg+xml</dc:format>
        <dc:type
           rdf:resource="http://purl.org/dc/dcmitype/StillImage" />
        <dc:title />
      </cc:Work>
    </rdf:RDF>
  </metadata>
  <g
     style="stroke-opacity:0"
     id="g102"
     transform="translate(0,-238.79)">
    <path
       inkscape:connector-curvature="0"
       d="m 18.116,278.54 c 0,0 -0.05314,2.0747 -0.05314,2.5896 0,0.60003 -0.05565,1.729 -0.2613,3.0258 -0.15201,0.95862 -0.26804,1.6084 -0.42606,2.492 -0.13511,0.7555 0.10453,-0.18008 -0.45093,1.8929 -0.45397,1.6942 -0.36639,1.3553 -0.55038,2.0245 -0.12812,0.46605 -0.34204,0.76779 -0.67517,1.2826 -0.33313,0.51479 -0.83338,1.1741 -1.6492,1.9899 -0.23524,0.23523 -0.3717,0.37667 -0.56744,0.55573 -0.20324,0.18593 -0.42486,0.23601 -0.49041,0.48067 -0.15144,0.56517 -0.14186,1.1997 -0.14186,1.1997 l 8.7733,-0.0302 8.6407,0.0425 c 0,0 0.06841,-0.46535 -0.0702,-1.0851 -0.04233,-0.18926 -0.3979,-0.42638 -0.53088,-0.56013 -0.30253,-0.30427 -0.51163,-0.55313 -0.79607,-0.8726 -0.40946,-0.4599 -0.83813,-0.94259 -1.2787,-1.4532 -0.44055,-0.51061 -0.63383,-0.80325 -0.97303,-1.6141 -0.33919,-0.81082 -0.71727,-2.5722 -0.99886,-4.0052 -0.39391,-2.0046 -0.57341,-2.8966 -0.65616,-5.1825 l -0.09896,-2.7436 c 0,0 -0.74607,-0.0134 -1.5863,-0.0122 -1.3519,-0.002 -2.1237,5e-4 -3.3632,5e-4 -0.79407,0 -1.7959,-0.0175 -1.7959,-0.0175 z m 1.2719,0.23205 c 0,0 0.652,0.0166 1.1685,0.0166 0.80626,0 1.308,-0.002 2.1874,-5e-4 0.54653,-9.4e-4 1.032,0.0112 1.032,0.0112 l 0.06434,2.5466 c 0.05383,2.1219 0.17033,2.9498 0.42655,4.8105 0.18317,1.3301 0.42919,2.9654 0.64982,3.7181 0.22063,0.75262 0.2643,1.0987 0.55086,1.5726 0.28656,0.47398 0.4995,0.86836 0.76584,1.2953 0.18501,0.29654 0.46913,0.63355 0.66591,0.91599 0.0865,0.12415 0.10095,0.11892 0.55428,0.69175 0.45332,0.57283 0.58352,0.58888 0.58352,0.58888 l -6.3671,0.0805 -6.6035,-0.0322 c 0,0 0.41119,-0.34811 0.6898,-0.69515 0.27861,-0.34704 0.39,-0.40695 0.4987,-0.59523 0.17629,-0.30534 0.33545,-0.50703 0.48846,-0.72538 0.53064,-0.75726 0.85627,-1.3688 1.073,-1.8466 0.21669,-0.47785 0.3554,-0.75785 0.43874,-1.1904 0.11968,-0.62124 0.06302,-0.30712 0.3583,-1.8798 0.36131,-1.9242 0.2051,-1.0556 0.29298,-1.7569 0.10279,-0.82021 0.1785,-1.4233 0.27738,-2.3131 0.13377,-1.2038 0.16965,-2.2519 0.16965,-2.8089 0,-0.47788 0.03461,-2.4038 0.03461,-2.4038 z"
       style="paint-order:stroke fill markers"
       id="rect3715" />
    <path
       inkscape:connector-curvature="0"
       d="m 30.251,258.8 c 0,0 -11.778,0.0877 -17.341,0.0877 -0.235,0 -0.30933,-0.0204 -0.21357,0.33699 0.05815,0.217 0.10717,0.58484 0.19895,1.1781 0.26681,2.0036 0.19514,1.9687 0.37829,3.2272 0.11421,0.78471 0.25973,1.9066 0.41875,2.7085 0.48914,2.4666 0.49351,2.505 0.70003,3.6752 0.41627,2.3588 0.40301,2.3596 0.66591,3.2179 0.86362,2.8196 0.96541,2.8408 1.3055,3.3958 1.6024,2.0464 1.7598,1.9358 1.7598,1.9358 l 6.7454,0.0292 c 0,0 1.1389,-1.1143 1.8983,-2.2795 0.59625,-0.91489 1.187,-3.0531 1.187,-3.0531 l 0.66688,-3.3486 0.53234,-3.7556 0.42996,-2.9396 c 0,0 0.18824,-1.9121 0.43484,-2.8362 0.42296,-1.585 0.23253,-1.5799 0.23253,-1.5799 z m -1.4459,1.8096 c 0,0 -0.04842,0.51432 -0.27337,1.4728 -0.17288,0.73659 -0.42715,2.2611 -0.42715,2.2611 l -0.32773,2.3296 -0.38978,3.151 c 0,0 -0.28912,1.7477 -0.54355,2.6626 -0.25443,0.91493 -0.47694,1.4856 -0.87852,2.4005 -0.45574,1.0382 -1.5478,1.8578 -1.5478,1.8578 0,0 -0.73163,0.90541 -2.6724,0.87504 -1.9408,-0.0304 -2.7665,-0.62984 -2.7665,-0.62984 0,0 -0.39387,-0.0504 -1.4946,-1.8471 -0.27725,-0.45254 -0.36062,-0.46976 -1.0647,-2.7684 -0.21433,-0.69976 -0.20322,-0.70024 -0.54258,-2.6232 -0.16836,-0.95401 -0.1716,-0.98576 -0.57036,-2.9966 -0.12964,-0.65372 -0.24862,-1.5676 -0.34173,-2.2074 -0.14932,-1.026 -0.09058,-0.99803 -0.30809,-2.6315 -0.18478,-1.3876 -0.1774,-1.3286 -0.1774,-1.3286 z"
       style="paint-order:stroke fill markers"
       id="rect3783" />
    <g
       transform="matrix(0.24959,0,0,0.24959,11.217,241.3)"
       id="g3840">
      <rect
         x="29.794001"
         y="-6.1662998"
         width="22.346001"
         height="136.11"
         style="paint-order:stroke fill markers"
         id="rect3802" />
      <rect
         x="25.205"
         y="-81.711998"
         width="22.577999"
         height="81.151001"
         transform="rotate(90)"
         style="paint-order:stroke fill markers"
         id="rect3802-2" />
    </g>
    <g
       style="fill:#ffffff"
       transform="matrix(0.24959,0,0,0.24959,11.192,241.11)"
       id="g3900">
      <rect
         x="35.910999"
         y="2.6185999"
         width="11.013"
         height="123.53"
         style="paint-order:stroke fill markers"
         id="rect3892" />
      <rect
         x="5.7458"
         y="31.826"
         width="69.667"
         height="10.294"
         style="paint-order:stroke fill markers"
         id="rect3896" />
    </g>
  </g>
  <path
     style="fill:#ffffff;stroke-width:0.32958367"
     d="m 59.244302,210.2579 c 2.422645,-2.53435 6.269318,-8.27681 8.088963,-12.0755 1.118968,-2.33595 1.584875,-3.97538 2.633021,-9.26504 2.193667,-11.07073 3.299989,-22.54869 3.550016,-36.83098 l 0.01298,-0.74156 h 8.039715 8.039715 l 0.196021,5.52053 c 0.550629,15.50721 2.518837,30.92063 4.947239,38.74281 1.179073,3.79794 4.674864,9.47141 8.995168,14.59864 l 1.41493,1.67921 -4.69294,0.21469 c -2.581126,0.11808 -13.355671,0.21523 -23.94344,0.21589 l -19.250491,0.001 z"
     id="path3832"
     inkscape:connector-curvature="0"
     transform="scale(0.26458333)" />
  <path
     style="fill:#ffffff;stroke-width:0.32958367"
     d="m 79.132207,146.3928 c -4.515843,-0.52954 -7.475867,-1.79719 -9.377457,-4.01596 -4.591681,-5.35754 -7.123439,-12.0124 -9.601415,-25.23782 -2.904748,-15.50318 -3.485624,-19.3442 -4.982542,-32.946872 l -0.190414,-1.730314 h 7.626534 7.626534 v 24.883566 24.88357 h 10.71147 10.711469 V 107.3454 82.461834 h 8.575454 8.57545 l -0.16708,0.741563 c -1.60456,7.121413 -3.54372,19.375993 -4.81114,30.404093 -0.58992,5.13305 -2.19333,12.82512 -3.46802,16.63729 -1.914397,5.72528 -3.168917,7.98841 -6.148802,11.09233 -3.104955,3.23419 -5.450411,4.55379 -8.982744,5.05387 -2.562343,0.36275 -3.018247,0.36289 -6.097297,0.002 z"
     id="path3834"
     inkscape:connector-curvature="0"
     transform="scale(0.26458333)" />
</svg>
